PathFileType	4	(X/Y/Z)	/Users/itak/Documents/Research/Walk-IL/dataset/trc/00187_00008.trc
DataRate	CameraRate	NumFrames	NumMarkers	Units	OrigDataRate	OrigDataStartFrame	OrigNumFrames
100.000000	100.000000	4	53	mm	100.000000	574	766
Frame#	Time	RPSI			LPSI			L3			STRN			T10			C7			CLAV			RBAK			LBAK			LSHO			LUPA			LAEL			LAOL			LWTS			LWPS			LFRA			LIFD			LHPS			LHTS			RSHO			RUPA			RAEL			RAOL			RWTS			RWPS			RFRA			RIFD			RHTS			RHPS			RBHD			LFHD			RFHD			LBHD			LHIP			RHIP			RASI			LASI			LKNE			LTHI			LANK			LTIP			LTOE			LMT1			LMT5			LHEE			RKNE			RTHI			RANK			RTIP			RTOE			RMT1			RMT5			RHEE			
		X1	Y1	Z1	X2	Y2	Z2	X3	Y3	Z3	X4	Y4	Z4	X5	Y5	Z5	X6	Y6	Z6	X7	Y7	Z7	X8	Y8	Z8	X9	Y9	Z9	X10	Y10	Z10	X11	Y11	Z11	X12	Y12	Z12	X13	Y13	Z13	X14	Y14	Z14	X15	Y15	Z15	X16	Y16	Z16	X17	Y17	Z17	X18	Y18	Z18	X19	Y19	Z19	X20	Y20	Z20	X21	Y21	Z21	X22	Y22	Z22	X23	Y23	Z23	X24	Y24	Z24	X25	Y25	Z25	X26	Y26	Z26	X27	Y27	Z27	X28	Y28	Z28	X29	Y29	Z29	X30	Y30	Z30	X31	Y31	Z31	X32	Y32	Z32	X33	Y33	Z33	X34	Y34	Z34	X35	Y35	Z35	X36	Y36	Z36	X37	Y37	Z37	X38	Y38	Z38	X39	Y39	Z39	X40	Y40	Z40	X41	Y41	Z41	X42	Y42	Z42	X43	Y43	Z43	X44	Y44	Z44	X45	Y45	Z45	X46	Y46	Z46	X47	Y47	Z47	X48	Y48	Z48	X49	Y49	Z49	X50	Y50	Z50	X51	Y51	Z51	X52	Y52	Z52	X53	Y53	Z53	

575	5.74	-947.145263671875	1039.507934570312	492.6073608398438	-846.5607299804688	1038.036254882812	424.7527770996094	-896.7754516601562	1077.32666015625	458.3345642089844	-751.5026245117188	1285.666748046875	680.6375122070312	-897.87109375	1240.77099609375	418.654541015625	-841.0449829101562	1506.501953125	473.7715454101562	-753.3406372070312	1400.362060546875	651.8462524414062	-976.8303833007812	1338.648803710938	464.8019714355469	-758.674560546875	1480.338134765625	418.0555419921875	-652.7762451171875	1466.473022460938	447.7836608886719	-608.4059448242188	1329.154907226562	389.6909484863281	-591.8509521484375	1109.459594726562	417.3856811523438	-679.0075073242188	1091.977661132812	407.1346435546875	-561.9277954101562	942.4511108398438	610.4869995117188	-560.283935546875	883.9375610351562	536.7088623046875	-570.18310546875	1006.39892578125	461.9986572265625	-557.8111572265625	784.24267578125	710.4517211914062	-549.8601684570312	831.3727416992188	585.5482177734375	-533.374755859375	873.0133666992188	643.405029296875	-970.959716796875	1492.881591796875	613.9436645507812	-1042.931640625	1432.89111328125	624.909423828125	-1135.718383789062	1157.24072265625	630.8973388671875	-1048.873291015625	1137.61572265625	588.9274291992188	-1078.174194335938	938.0736083984375	775.1295166015625	-1148.972290039062	918.7935791015625	724.2239990234375	-1148.417358398438	1086.901123046875	667.3533325195312	-1052.98095703125	753.89990234375	797.5842895507812	-1079.75732421875	848.1022338867188	813.5215454101562	-1138.701171875	838.710205078125	758.5635375976562	-856.9159545898438	1681.502197265625	594.5244750976562	-642.5509033203125	1685.318969726562	618.7091674804688	-729.0674438476562	1699.2412109375	712.1004638671875	-768.6317749023438	1674.972045898438	490.3222961425781	-694.3143310546875	971.4911499023438	452.2010192871094	-978.1945190429688	1009.204650878906	689.8049926757812	-886.6978759765625	1037.317016601562	725.3240966796875	-670.6890258789062	1015.041442871094	586.343505859375	-773.5855102539062	478.802490234375	545.08154296875	-729.87646484375	619.5552368164062	518.1823120117188	-907.0462646484375	43.20771789550781	456.7672119140625	-829.8023071289062	255.4263916015625	504.5470275878906	-820.8168334960938	39.37331390380859	658.6856689453125	-889.2355346679688	32.03489303588867	639.2639770507812	-820.6425170898438	41.00325393676758	532.7447509765625	-991.86181640625	40.83668518066406	442.9228820800781	-893.0397338867188	549.0860595703125	870.733642578125	-937.3375244140625	808.799560546875	800.6886596679688	-1021.138061523438	65.62531280517578	825.4288330078125	-892.9295043945312	425.2438354492188	887.4131469726562	-894.725830078125	86.20694732666016	1009.903259277344	-874.7027587890625	75.29312896728516	943.0935668945312	-999.408447265625	65.94039916992188	944.4979248046875	-978.1423950195312	52.69453811645508	754.962646484375	
576	5.75	-945.1019897460938	1037.726928710938	502.2601318359375	-845.86572265625	1036.709228515625	432.3505554199219	-895.7809448242188	1075.789916992188	466.6737060546875	-747.350341796875	1284.197021484375	687.1890869140625	-897.3137817382812	1239.425415039062	427.102294921875	-839.91650390625	1505.06640625	481.6825561523438	-749.6482543945312	1398.950561523438	658.561767578125	-975.6070556640625	1337.134643554688	474.3850402832031	-758.216796875	1479.00830078125	424.8253479003906	-651.74755859375	1465.076293945312	453.2922058105469	-608.0206909179688	1327.721435546875	394.9403076171875	-591.1708984375	1107.9970703125	423.6664733886719	-678.44921875	1090.579833984375	413.7643127441406	-560.9341430664062	940.9324340820312	616.7693481445312	-559.2468872070312	882.4859008789062	542.885498046875	-569.4213256835938	1004.985595703125	468.2630310058594	-556.977294921875	782.4547119140625	716.4585571289062	-548.7841796875	829.8922729492188	591.6696166992188	-532.4614868164062	871.3822021484375	649.634765625	-967.6597900390625	1491.2001953125	623.50146484375	-1039.55322265625	1431.09814453125	635.3818969726562	-1132.307983398438	1155.548706054688	641.7470703125	-1046.14794921875	1136.237426757812	598.3849487304688	-1072.855102539062	935.4737548828125	783.9603271484375	-1144.505737304688	916.6171264648438	734.0535278320312	-1144.569702148438	1085.03076171875	678.0201416015625	-1047.473388671875	751.111083984375	804.7838134765625	-1074.025634765625	845.1408081054688	821.7622680664062	-1133.80419921875	836.2876586914062	767.7687377929688	-854.2692260742188	1679.920043945312	602.9435424804688	-639.6229858398438	1683.783447265625	625.2887573242188	-725.4498901367188	1697.345703125	719.4873657226562	-766.8626098632812	1673.776000976562	497.9847412109375	-692.9886474609375	971.0441284179688	457.3089599609375	-973.0520629882812	1007.582092285156	699.822998046875	-880.9862060546875	1035.950073242188	733.5901489257812	-667.2411499023438	1014.316711425781	591.167236328125	-771.5841674804688	478.1042785644531	547.5809936523438	-728.0450439453125	619.06103515625	521.484375	-907.148681640625	43.42073440551758	456.8828125	-828.9737548828125	255.2321929931641	505.7250671386719	-820.2293701171875	39.44877243041992	658.5106201171875	-889.09765625	32.03150177001953	639.336181640625	-820.5723266601562	40.90864181518555	532.7779541015625	-992.0069580078125	41.27990341186523	443.1270141601562	-883.0474853515625	549.3052368164062	882.4493408203125	-929.1002197265625	807.9208374023438	810.6793823242188	-1003.682189941406	62.44030380249023	856.0247192382812	-880.5242309570312	426.0735778808594	902.1465454101562	-870.56640625	89.53762817382812	1034.131713867188	-853.1439208984375	77.35704803466797	966.8145141601562	-977.4793701171875	66.04703521728516	973.8010864257812	-964.1008911132812	48.89933395385742	783.77685546875	
577	5.76	-943.0953369140625	1035.908447265625	511.8470458984375	-845.0889892578125	1035.357543945312	440.0432739257812	-894.8113403320312	1074.218994140625	475.0004577636719	-743.229248046875	1282.677124023438	693.8045654296875	-896.6321411132812	1237.972412109375	435.6294250488281	-838.71923828125	1503.55859375	489.6211853027344	-745.96240234375	1397.478393554688	665.3212280273438	-974.2923583984375	1335.504272460938	483.9637451171875	-757.6632080078125	1477.592651367188	431.6929321289062	-650.725341796875	1463.554809570312	458.9202575683594	-607.6527709960938	1326.21875	400.1955871582031	-590.5239868164062	1106.452758789062	429.7612915039062	-677.9241943359375	1089.118530273438	420.24755859375	-559.9461669921875	939.1642456054688	622.7312622070312	-558.2128295898438	880.85400390625	548.6842041015625	-568.6838989257812	1003.459594726562	474.2577514648438	-556.1533203125	780.3409423828125	722.0027465820312	-547.705078125	828.1845092773438	597.3626098632812	-531.5301513671875	869.4837036132812	655.479248046875	-964.3084716796875	1489.425537109375	632.974609375	-1036.170166015625	1429.222534179688	645.76708984375	-1128.832885742188	1153.75732421875	652.492919921875	-1043.296264648438	1134.682250976562	607.8436889648438	-1067.566528320312	932.80078125	792.6959228515625	-1140.088134765625	914.3663330078125	743.8119506835938	-1140.688354492188	1083.079345703125	688.5780029296875	-1042.042724609375	748.2488403320312	811.907958984375	-1068.291137695312	842.0999145507812	829.8799438476562	-1128.924072265625	833.7855834960938	776.87744140625	-851.6112670898438	1678.268798828125	611.357421875	-636.6777954101562	1682.197631835938	631.8869018554688	-721.8538818359375	1695.411865234375	726.8881225585938	-765.067626953125	1672.49560546875	505.65673828125	-691.6253662109375	970.632080078125	462.5369873046875	-967.8644409179688	1005.835998535156	709.7985229492188	-875.3331298828125	1034.468872070312	741.9219360351562	-663.776123046875	1013.557373046875	596.1236572265625	-769.5446166992188	477.408935546875	550.0476684570312	-726.181640625	618.5658569335938	524.759521484375	-907.3053588867188	43.63509750366211	456.99755859375	-828.1403198242188	255.0616302490234	506.8579711914062	-819.655029296875	39.51393508911133	658.32958984375	-888.9505615234375	32.05498504638672	639.4020385742188	-820.518798828125	40.79863739013672	532.7874145507812	-992.2274780273438	41.77693557739258	443.3869323730469	-873.4078979492188	549.2764282226562	893.851318359375	-920.98486328125	806.8901977539062	820.4288330078125	-985.3153076171875	59.47475814819336	885.968017578125	-868.3580932617188	426.813720703125	916.3714599609375	-845.9373779296875	93.02252960205078	1057.174072265625	-831.1004638671875	79.679931640625	989.4628295898438	-954.8159790039062	66.32387542724609	1002.019592285156	-949.288818359375	45.49176406860352	811.9110107421875	
578	5.77	-941.1077270507812	1034.054321289062	521.3844604492188	-844.226806640625	1033.98095703125	447.8408813476562	-893.8072509765625	1072.60888671875	483.364990234375	-739.1279907226562	1281.109985351562	700.4873046875	-895.8189086914062	1236.417236328125	444.2481079101562	-837.4327392578125	1501.986572265625	497.6063842773438	-742.2764282226562	1395.947875976562	672.1312866210938	-972.8856201171875	1333.767822265625	493.5444641113281	-756.994384765625	1476.099365234375	438.66845703125	-649.6885986328125	1461.932373046875	464.6509094238281	-607.2838134765625	1324.65234375	405.4696960449219	-589.9103393554688	1104.833374023438	435.6678771972656	-677.420654296875	1087.600952148438	426.5913391113281	-558.9495849609375	937.1546630859375	628.3682861328125	-557.1709594726562	879.0545043945312	554.1062622070312	-567.9695434570312	1001.826721191406	479.982177734375	-555.33544921875	777.9181518554688	727.086181640625	-546.6188354492188	826.256591796875	602.6275634765625	-530.5698852539062	867.329833984375	660.9365844726562	-960.9191284179688	1487.566528320312	642.4093017578125	-1032.780517578125	1427.280029296875	656.0769653320312	-1125.285888671875	1151.868408203125	663.1334228515625	-1040.3056640625	1132.970703125	617.3154296875	-1062.329223632812	930.0692749023438	801.360595703125	-1135.716918945312	912.0460205078125	753.4910278320312	-1136.7783203125	1081.055541992188	699.0172729492188	-1036.706787109375	745.3287353515625	818.9913940429688	-1062.58740234375	839.0050659179688	837.902099609375	-1124.072998046875	831.2188110351562	785.8857421875	-848.94140625	1676.554321289062	619.7630004882812	-633.7301025390625	1680.574951171875	638.5101928710938	-718.2789306640625	1693.453857421875	734.3014526367188	-763.24267578125	1671.134155273438	513.3362426757812	-690.2007446289062	970.2532348632812	467.8993835449219	-962.632568359375	1003.964416503906	719.7546997070312	-869.6792602539062	1032.870483398438	750.3182373046875	-660.2955322265625	1012.761291503906	601.2151489257812	-767.4835205078125	476.7250671386719	552.4676513671875	-724.2606201171875	618.0809326171875	527.9931640625	-907.5231323242188	43.8503532409668	457.1199340820312	-827.3087158203125	254.9276885986328	507.9335021972656	-819.140869140625	39.55658340454102	658.1614379882812	-888.7984008789062	32.10467147827148	639.462890625	-820.49267578125	40.67483901977539	532.7698974609375	-992.5322265625	42.32833862304688	443.7138977050781	-864.145751953125	549.0078125	904.908203125	-913.0128173828125	805.7080688476562	829.93994140625	-966.1885375976562	56.82918548583984	915.1284790039062	-856.4613647460938	427.48193359375	930.1031494140625	-821.0096435546875	96.67407989501953	1079.060180664062	-808.73193359375	82.26606750488281	1011.067810058594	-931.5576171875	66.80991363525391	1029.134765625	-933.7653198242188	42.49547576904297	839.3225708007812	
